<svg xmlns="http://www.w3.org/2000/svg" viewBox="0 0 96 96" width="96" height="96">
  <defs>
    <radialGradient id="s-bg" cx="50%" cy="40%" r="70%">
      <stop offset="0%" stop-color="#2F4A55"/>
      <stop offset="100%" stop-color="#16242B"/>
    </radialGradient>
    <linearGradient id="s-hair" x1="0" y1="0" x2="0" y2="1">
      <stop offset="0%" stop-color="#F3E4C3"/>
      <stop offset="100%" stop-color="#B89E72"/>
    </linearGradient>
  </defs>
  <rect width="96" height="96" fill="url(#s-bg)"/>
  <circle cx="48" cy="44" r="22" fill="#EBD3B6"/>
  <path d="M22 46 Q48 6 74 46 L70 52 Q48 22 26 52 Z" fill="url(#s-hair)"/>
  <path d="M26 50 Q26 84 48 88 Q70 84 70 50 L66 78 Q58 86 48 86 Q38 86 30 78 Z" fill="url(#s-hair)" opacity="0.8"/>
  <path d="M34 38 L28 32 L36 36 Z" fill="#EBD3B6"/>
  <path d="M62 38 L68 32 L60 36 Z" fill="#EBD3B6"/>
  <circle cx="40" cy="48" r="1.4" fill="#2B4035"/>
  <circle cx="56" cy="48" r="1.4" fill="#2B4035"/>
  <path d="M42 58 Q48 60 54 58" fill="none" stroke="#9A6A5A" stroke-width="1.1" stroke-linecap="round"/>
  <circle cx="48" cy="22" r="2" fill="#F3E4C3" opacity="0.9"/>
  <circle cx="32" cy="30" r="1.2" fill="#F3E4C3" opacity="0.7"/>
  <circle cx="64" cy="30" r="1.2" fill="#F3E4C3" opacity="0.7"/>
</svg>
