<svg xmlns="http://www.w3.org/2000/svg" viewBox="0 0 96 96" width="96" height="96">
  <defs>
    <radialGradient id="a-bg" cx="50%" cy="40%" r="70%">
      <stop offset="0%" stop-color="#3A4350"/>
      <stop offset="100%" stop-color="#1A1F26"/>
    </radialGradient>
  </defs>
  <rect width="96" height="96" fill="url(#a-bg)"/>
  <circle cx="48" cy="44" r="20" fill="#D8C0A6"/>
  <path d="M22 50 Q30 18 48 14 Q66 18 74 50 L70 30 Q60 22 48 22 Q36 22 26 30 Z" fill="#E8E5DE"/>
  <path d="M22 50 Q22 80 30 86 Q40 76 48 76 Q56 76 66 86 Q74 80 74 50 Q62 60 48 60 Q34 60 22 50 Z" fill="#D8D5CC"/>
  <path d="M28 58 Q28 90 48 88 Q68 90 68 58 Q58 76 48 76 Q38 76 28 58 Z" fill="#E0DDD4" opacity="0.9"/>
  <circle cx="40" cy="46" r="1.6" fill="#1B1F26"/>
  <circle cx="56" cy="46" r="1.6" fill="#1B1F26"/>
  <path d="M44 54 L52 54" stroke="#7A6A50" stroke-width="1.3" stroke-linecap="round"/>
  <path d="M48 14 L52 22 L60 24 L52 28 L50 36 L48 30 L46 36 L44 28 L36 24 L44 22 Z" fill="#B68A2E" opacity="0.8"/>
</svg>
