<svg xmlns="http://www.w3.org/2000/svg" viewBox="0 0 96 96" width="96" height="96">
  <defs>
    <radialGradient id="al-bg" cx="50%" cy="40%" r="70%">
      <stop offset="0%" stop-color="#4F3A24"/>
      <stop offset="100%" stop-color="#241608"/>
    </radialGradient>
  </defs>
  <rect width="96" height="96" fill="url(#al-bg)"/>
  <path d="M30 20 Q48 8 66 20 L72 38 L24 38 Z" fill="#7A5A12"/>
  <circle cx="48" cy="46" r="20" fill="#DDC0A0"/>
  <path d="M36 36 Q48 30 60 36" fill="none" stroke="#C8AC8E" stroke-width="1.2"/>
  <path d="M28 38 Q48 32 68 38 Q72 44 68 50 L62 46 Q48 42 34 46 L28 50 Q24 44 28 38 Z" fill="#7A5A12" opacity="0.7"/>
  <circle cx="40" cy="48" r="1.6" fill="#2B1A0C"/>
  <circle cx="56" cy="48" r="1.6" fill="#2B1A0C"/>
  <path d="M44 58 L52 58" stroke="#6B2230" stroke-width="1.4" stroke-linecap="round"/>
  <path d="M28 64 Q48 76 68 64 Q72 86 48 88 Q24 86 28 64 Z" fill="#B68A2E"/>
  <circle cx="48" cy="74" r="4" fill="#6B2230"/>
  <path d="M48 70 L48 78 M44 74 L52 74" stroke="#F3E4C3" stroke-width="1.2" stroke-linecap="round"/>
</svg>
