<svg xmlns="http://www.w3.org/2000/svg" viewBox="0 0 96 96" width="96" height="96">
  <defs>
    <radialGradient id="n-bg" cx="50%" cy="40%" r="70%">
      <stop offset="0%" stop-color="#2A2030"/>
      <stop offset="100%" stop-color="#0F0A18"/>
    </radialGradient>
  </defs>
  <rect width="96" height="96" fill="url(#n-bg)"/>
  <circle cx="48" cy="46" r="20" fill="#C8AC8E"/>
  <path d="M18 36 Q48 -4 78 36 L72 60 Q72 18 48 18 Q24 18 24 60 Z" fill="#1B1024"/>
  <path d="M26 50 Q26 86 48 88 Q70 86 70 50 Q60 70 48 70 Q36 70 26 50 Z" fill="#1B1024"/>
  <path d="M18 52 Q12 70 24 78 Q34 70 30 56" fill="#1B1024"/>
  <path d="M78 52 Q84 70 72 78 Q62 70 66 56" fill="#1B1024"/>
  <ellipse cx="40" cy="48" rx="2.5" ry="1.5" fill="#1B1024"/>
  <ellipse cx="56" cy="48" rx="2.5" ry="1.5" fill="#1B1024"/>
  <circle cx="40.4" cy="48" r="0.8" fill="#9A4A3A"/>
  <circle cx="56.4" cy="48" r="0.8" fill="#9A4A3A"/>
  <path d="M42 58 Q48 60 54 58" fill="none" stroke="#6B2230" stroke-width="1.2" stroke-linecap="round"/>
</svg>
